<mxfile host="app.diagrams.net" agent="Mozilla/5.0 (Windows NT 10.0; Win64; x64) AppleWebKit/537.36 (KHTML, like Gecko) Chrome/131.0.0.0 Safari/537.36 Edg/131.0.0.0" version="25.0.1">
  <diagram name="หน้า-1" id="EdO512csei_0c3VijOjU">
    <mxGraphModel dx="3029" dy="1358" grid="1" gridSize="10" guides="1" tooltips="1" connect="1" arrows="1" fold="1" page="1" pageScale="1" pageWidth="827" pageHeight="1169" math="0" shadow="0">
      <root>
        <mxCell id="0" />
        <mxCell id="1" parent="0" />
        <mxCell id="wIx__rXYdUCFqKDYXBTa-1" value="" style="edgeStyle=orthogonalEdgeStyle;rounded=0;orthogonalLoop=1;jettySize=auto;html=1;" edge="1" parent="1" source="wIx__rXYdUCFqKDYXBTa-22" target="wIx__rXYdUCFqKDYXBTa-3">
          <mxGeometry relative="1" as="geometry" />
        </mxCell>
        <mxCell id="wIx__rXYdUCFqKDYXBTa-2" value="Start" style="ellipse;whiteSpace=wrap;html=1;" vertex="1" parent="1">
          <mxGeometry x="305" y="90" width="120" height="80" as="geometry" />
        </mxCell>
        <mxCell id="wIx__rXYdUCFqKDYXBTa-3" value="รับข้อมูลเลขUser&amp;nbsp;" style="shape=parallelogram;perimeter=parallelogramPerimeter;whiteSpace=wrap;html=1;fixedSize=1;" vertex="1" parent="1">
          <mxGeometry x="270" y="330" width="190" height="60" as="geometry" />
        </mxCell>
        <mxCell id="wIx__rXYdUCFqKDYXBTa-4" value="" style="edgeStyle=orthogonalEdgeStyle;rounded=0;orthogonalLoop=1;jettySize=auto;html=1;" edge="1" parent="1" target="wIx__rXYdUCFqKDYXBTa-11">
          <mxGeometry relative="1" as="geometry">
            <mxPoint x="365" y="390" as="sourcePoint" />
          </mxGeometry>
        </mxCell>
        <mxCell id="wIx__rXYdUCFqKDYXBTa-5" style="edgeStyle=orthogonalEdgeStyle;rounded=0;orthogonalLoop=1;jettySize=auto;html=1;" edge="1" parent="1" source="wIx__rXYdUCFqKDYXBTa-7" target="wIx__rXYdUCFqKDYXBTa-18">
          <mxGeometry relative="1" as="geometry" />
        </mxCell>
        <mxCell id="wIx__rXYdUCFqKDYXBTa-6" value="" style="edgeStyle=orthogonalEdgeStyle;rounded=0;orthogonalLoop=1;jettySize=auto;html=1;" edge="1" parent="1" source="wIx__rXYdUCFqKDYXBTa-7" target="wIx__rXYdUCFqKDYXBTa-20">
          <mxGeometry relative="1" as="geometry" />
        </mxCell>
        <mxCell id="wIx__rXYdUCFqKDYXBTa-7" value="Loop i ถึง&amp;nbsp;&lt;div&gt;ค่าที่ผู้ใช้กรอกมา&lt;/div&gt;" style="rhombus;whiteSpace=wrap;html=1;" vertex="1" parent="1">
          <mxGeometry x="291.5" y="510" width="147" height="80" as="geometry" />
        </mxCell>
        <mxCell id="wIx__rXYdUCFqKDYXBTa-8" value="Y" style="text;html=1;align=center;verticalAlign=middle;whiteSpace=wrap;rounded=0;" vertex="1" parent="1">
          <mxGeometry x="317.5" y="590" width="60" height="30" as="geometry" />
        </mxCell>
        <mxCell id="wIx__rXYdUCFqKDYXBTa-9" value="N" style="text;html=1;align=center;verticalAlign=middle;whiteSpace=wrap;rounded=0;" vertex="1" parent="1">
          <mxGeometry x="410" y="510" width="60" height="30" as="geometry" />
        </mxCell>
        <mxCell id="wIx__rXYdUCFqKDYXBTa-10" value="" style="edgeStyle=orthogonalEdgeStyle;rounded=0;orthogonalLoop=1;jettySize=auto;html=1;" edge="1" parent="1" source="wIx__rXYdUCFqKDYXBTa-11" target="wIx__rXYdUCFqKDYXBTa-7">
          <mxGeometry relative="1" as="geometry" />
        </mxCell>
        <mxCell id="wIx__rXYdUCFqKDYXBTa-11" value="" style="ellipse;whiteSpace=wrap;html=1;aspect=fixed;" vertex="1" parent="1">
          <mxGeometry x="352.5" y="440" width="25" height="25" as="geometry" />
        </mxCell>
        <mxCell id="wIx__rXYdUCFqKDYXBTa-12" value="" style="edgeStyle=orthogonalEdgeStyle;rounded=0;orthogonalLoop=1;jettySize=auto;html=1;" edge="1" parent="1" source="wIx__rXYdUCFqKDYXBTa-13" target="wIx__rXYdUCFqKDYXBTa-17">
          <mxGeometry relative="1" as="geometry" />
        </mxCell>
        <mxCell id="wIx__rXYdUCFqKDYXBTa-13" value="i น้อยกว่า&amp;nbsp;&amp;nbsp;&lt;div&gt;ค่าที่ผู้ใช้กรอกมา&lt;/div&gt;&lt;div&gt;ไหม&lt;/div&gt;" style="rhombus;whiteSpace=wrap;html=1;" vertex="1" parent="1">
          <mxGeometry x="491.5" y="620" width="147" height="80" as="geometry" />
        </mxCell>
        <mxCell id="wIx__rXYdUCFqKDYXBTa-14" value="Y" style="text;html=1;align=center;verticalAlign=middle;whiteSpace=wrap;rounded=0;" vertex="1" parent="1">
          <mxGeometry x="460" y="620" width="60" height="30" as="geometry" />
        </mxCell>
        <mxCell id="wIx__rXYdUCFqKDYXBTa-15" value="N" style="text;html=1;align=center;verticalAlign=middle;whiteSpace=wrap;rounded=0;" vertex="1" parent="1">
          <mxGeometry x="610" y="620" width="60" height="30" as="geometry" />
        </mxCell>
        <mxCell id="wIx__rXYdUCFqKDYXBTa-16" style="edgeStyle=orthogonalEdgeStyle;rounded=0;orthogonalLoop=1;jettySize=auto;html=1;entryX=1;entryY=0.5;entryDx=0;entryDy=0;" edge="1" parent="1" source="wIx__rXYdUCFqKDYXBTa-26" target="wIx__rXYdUCFqKDYXBTa-11">
          <mxGeometry relative="1" as="geometry">
            <Array as="points" />
          </mxGeometry>
        </mxCell>
        <mxCell id="wIx__rXYdUCFqKDYXBTa-17" value="แสดง +" style="shape=parallelogram;perimeter=parallelogramPerimeter;whiteSpace=wrap;html=1;fixedSize=1;" vertex="1" parent="1">
          <mxGeometry x="470" y="740" width="190" height="60" as="geometry" />
        </mxCell>
        <mxCell id="wIx__rXYdUCFqKDYXBTa-18" value="End" style="ellipse;whiteSpace=wrap;html=1;" vertex="1" parent="1">
          <mxGeometry x="305" y="720" width="120" height="80" as="geometry" />
        </mxCell>
        <mxCell id="wIx__rXYdUCFqKDYXBTa-19" value="" style="edgeStyle=orthogonalEdgeStyle;rounded=0;orthogonalLoop=1;jettySize=auto;html=1;" edge="1" parent="1" source="wIx__rXYdUCFqKDYXBTa-20" target="wIx__rXYdUCFqKDYXBTa-13">
          <mxGeometry relative="1" as="geometry" />
        </mxCell>
        <mxCell id="wIx__rXYdUCFqKDYXBTa-20" value="แสดง ค่า fix&amp;nbsp;" style="rounded=0;whiteSpace=wrap;html=1;" vertex="1" parent="1">
          <mxGeometry x="505" y="520" width="120" height="60" as="geometry" />
        </mxCell>
        <mxCell id="wIx__rXYdUCFqKDYXBTa-21" value="" style="edgeStyle=orthogonalEdgeStyle;rounded=0;orthogonalLoop=1;jettySize=auto;html=1;" edge="1" parent="1" source="wIx__rXYdUCFqKDYXBTa-2" target="wIx__rXYdUCFqKDYXBTa-22">
          <mxGeometry relative="1" as="geometry">
            <mxPoint x="365" y="170" as="sourcePoint" />
            <mxPoint x="365" y="330" as="targetPoint" />
          </mxGeometry>
        </mxCell>
        <mxCell id="wIx__rXYdUCFqKDYXBTa-22" value="ค่า fix = 9&amp;nbsp;" style="rounded=0;whiteSpace=wrap;html=1;" vertex="1" parent="1">
          <mxGeometry x="305" y="210" width="120" height="60" as="geometry" />
        </mxCell>
        <mxCell id="wIx__rXYdUCFqKDYXBTa-23" value="" style="edgeStyle=orthogonalEdgeStyle;rounded=0;orthogonalLoop=1;jettySize=auto;html=1;entryX=1;entryY=0.5;entryDx=0;entryDy=0;" edge="1" parent="1" source="wIx__rXYdUCFqKDYXBTa-17" target="wIx__rXYdUCFqKDYXBTa-24">
          <mxGeometry relative="1" as="geometry">
            <Array as="points">
              <mxPoint x="742" y="770" />
              <mxPoint x="742" y="453" />
            </Array>
            <mxPoint x="650" y="770" as="sourcePoint" />
            <mxPoint x="377" y="453" as="targetPoint" />
          </mxGeometry>
        </mxCell>
        <mxCell id="wIx__rXYdUCFqKDYXBTa-24" value="Sum += fix&amp;nbsp;" style="rounded=0;whiteSpace=wrap;html=1;" vertex="1" parent="1">
          <mxGeometry x="592" y="422.5" width="120" height="60" as="geometry" />
        </mxCell>
        <mxCell id="wIx__rXYdUCFqKDYXBTa-25" value="" style="edgeStyle=orthogonalEdgeStyle;rounded=0;orthogonalLoop=1;jettySize=auto;html=1;entryX=1;entryY=0.5;entryDx=0;entryDy=0;" edge="1" parent="1" source="wIx__rXYdUCFqKDYXBTa-24" target="wIx__rXYdUCFqKDYXBTa-26">
          <mxGeometry relative="1" as="geometry">
            <Array as="points" />
            <mxPoint x="592" y="453" as="sourcePoint" />
            <mxPoint x="377" y="453" as="targetPoint" />
          </mxGeometry>
        </mxCell>
        <mxCell id="wIx__rXYdUCFqKDYXBTa-26" value="fix = fix x 10 + 9&amp;nbsp;" style="rounded=0;whiteSpace=wrap;html=1;" vertex="1" parent="1">
          <mxGeometry x="438.5" y="422.5" width="120" height="60" as="geometry" />
        </mxCell>
      </root>
    </mxGraphModel>
  </diagram>
</mxfile>
